<?xml version="1.0" encoding="utf-8"?>
<!-- Generator: Adobe Illustrator 16.0.0, SVG Export Plug-In . SVG Version: 6.00 Build 0)  -->
<!DOCTYPE svg PUBLIC "-//W3C//DTD SVG 1.0//EN" "http://www.w3.org/TR/2001/REC-SVG-20010904/DTD/svg10.dtd">
<svg version="1.0" id="Layer_1" xmlns="http://www.w3.org/2000/svg" xmlns:xlink="http://www.w3.org/1999/xlink" x="0px" y="0px"
	 width="100px" height="100px" viewBox="0 0 100 100" enable-background="new 0 0 100 100" xml:space="preserve">
<path fill="none" stroke="#000000" stroke-width="2" stroke-linecap="round" stroke-linejoin="round" stroke-miterlimit="10" d="
	M57.39,42.876v2.634H41.195v-2.632C31.765,46.211,25,55.173,25,65.734C25,79.135,35.878,90,49.294,90
	c13.417,0,24.294-10.865,24.294-24.266C73.588,55.171,66.82,46.211,57.39,42.876z"/>
<rect x="41.195" y="33.378" fill="none" stroke="#000000" stroke-width="2" stroke-linecap="round" stroke-linejoin="round" stroke-miterlimit="10" width="16.195" height="12.133"/>
<path fill="none" stroke="#000000" stroke-width="2" stroke-linecap="round" stroke-linejoin="round" stroke-miterlimit="10" d="
	M61.438,21.245c-6.706,0-12.144,5.431-12.144,12.133C49.294,26.676,54.731,21.245,61.438,21.245z"/>
<polygon fill="none" stroke="#000000" stroke-width="2" stroke-linecap="round" stroke-linejoin="round" stroke-miterlimit="10" points="
	65.421,23.894 59.499,28.2 61.772,21.245 55.841,16.952 63.164,16.96 65.421,10 67.675,16.96 75,16.952 69.069,21.245 71.342,28.2 
	"/>
</svg>
